<?xml version="1.0" encoding="UTF-8" standalone="no"?>
<!-- Created with Inkscape (http://www.inkscape.org/) -->

<svg
   width="44mm"
   height="15mm"
   viewBox="0 0 44 15"
   version="1.1"
   id="svg1"
   inkscape:version="1.3.2 (091e20ef0f, 2023-11-25, custom)"
   sodipodi:docname="fedavg.svg"
   xmlns:inkscape="http://www.inkscape.org/namespaces/inkscape"
   xmlns:sodipodi="http://sodipodi.sourceforge.net/DTD/sodipodi-0.dtd"
   xmlns="http://www.w3.org/2000/svg"
   xmlns:svg="http://www.w3.org/2000/svg"
   xmlns:ns18="http://www.iki.fi/pav/software/textext/">
  <sodipodi:namedview
     id="namedview1"
     pagecolor="#ffffff"
     bordercolor="#000000"
     borderopacity="0.25"
     inkscape:showpageshadow="2"
     inkscape:pageopacity="0.0"
     inkscape:pagecheckerboard="0"
     inkscape:deskcolor="#d1d1d1"
     inkscape:document-units="mm"
     inkscape:zoom="2.181968"
     inkscape:cx="95.097636"
     inkscape:cy="46.74679"
     inkscape:window-width="1920"
     inkscape:window-height="1052"
     inkscape:window-x="1920"
     inkscape:window-y="0"
     inkscape:window-maximized="1"
     inkscape:current-layer="g4940" />
  <defs
     id="defs1" />
  <g
     inkscape:label="Layer 1"
     inkscape:groupmode="layer"
     id="layer1"
     transform="translate(-93.094781,-144.516)">
    <g
       transform="matrix(0.49337255,0,0,0.49805923,-31.496096,109.22043)"
       ns18:version="1.10.2"
       ns18:texconverter="typst"
       ns18:pdfconverter="inkscape"
       ns18:text="  $ w_(t+1) = \n    &amp;sum_(k=1)^K n_k / N w_(t+1)^k\n  $"
       ns18:preamble="/usr/share/inkscape/extensions/textext/default_packages.tex"
       ns18:scale="1.0"
       ns18:alignment="middle center"
       ns18:stroke-to-path="0"
       id="g4940"
       ns18:jacobian_sqrt="0.264583">
      <g
         id="g2915">
        <g
           transform="translate(252.21,88.7753)"
           id="g8193">
          <g
             class="typst-text"
             transform="scale(1,-1)"
             id="g8242">
            <g
               id="g1447">
              <path
                 d="M 6.49,4.301 C 6.49,4.202 6.545,4.092 6.666,3.9819999 6.919,3.74 7.051,3.443 7.051,3.091 7.051,2.904 6.985,2.6069999 6.853,2.178 6.446,0.858 5.929,0.198 5.302,0.198 c -0.517,0 -0.77,0.297 -0.77,0.902 0,0.209 0.044,0.462 0.121,0.781 0.198,0.792 0.407,1.573 0.5939997,2.376 0.022,0.077 0.033,0.121 0.033,0.154 0,0.22 -0.1209997,0.33 -0.3629997,0.33 -0.22,0 -0.363,-0.11 -0.4400002,-0.33 L 4.037,2.695 C 3.872,2.057 3.751,1.837 3.751,1.265 c 0,-0.088 0,-0.154 0.011,-0.187 C 3.509,0.495 3.19,0.198 2.805,0.198 2.2549999,0.198 1.98,0.517 1.98,1.144 c 0,0.407 0.187,1.1 0.561,2.079 0.121,0.33 0.187,0.561 0.187,0.704 0,0.539 -0.396,0.935 -0.935,0.935 -0.495,0 -0.869,-0.275 -1.144,-0.825 -0.22,-0.429 -0.33,-0.7260001 -0.33,-0.88 0,-0.099 0.055,-0.154 0.176,-0.154 0.143,0 0.16499997,0.066 0.209,0.22 C 0.968,4.103 1.3199999,4.5429997 1.76,4.5429997 1.914,4.5429997 1.9909999,4.433 1.9909999,4.224 1.9909999,4.059 1.925,3.817 1.804,3.487 1.397,2.42 1.188,1.694 1.188,1.287 c 0,-0.935 0.6269999,-1.408 1.584,-1.408 0.462,0 0.836,0.231 1.133,0.704 0.22,-0.473 0.671,-0.704 1.364,-0.704 0.6819997,0 1.221,0.45099998 1.606,1.353 0.253,0.572 0.726,2.09 0.726,2.827 0,0.165 -0.011,0.275 -0.022,0.33 C 7.535,4.598 7.3259997,4.862 7.084,4.862 6.798,4.862 6.49,4.587 6.49,4.301 Z"
                 id="path827" />
            </g>
          </g>
        </g>
        <g
           transform="translate(260.086,86.3795)"
           id="g529">
          <g
             class="typst-group"
             id="g8228">
            <g
               id="g5025">
              <g
                 transform="translate(0,5.1128)"
                 id="g2785">
                <g
                   class="typst-text"
                   transform="scale(1,-1)"
                   id="g8358">
                  <g
                     id="g7917">
                    <path
                       d="M 2.9259999,3.2031999 C 2.9259999,3.2879 2.8413,3.3341 2.6719,3.3341 H 1.9943 l 0.2695,1.0934 c 0,0.0154 0.0231,0.0924 0.0231,0.1078 0,0.1848 -0.0924,0.2772 -0.2849,0.2772 C 1.771,4.8125 1.6401,4.62 1.5862,4.3582 L 1.3398,3.3341 H 0.5929 C 0.4158,3.3341 0.3234,3.311 0.3234,3.1416 0.3234,3.0492 0.4081,3.003 0.5775,3.003 H 1.2551 L 0.8239,1.2474 C 0.7469,0.9394 0.7084,0.7469 0.7084,0.6776 c 0,-0.4543 0.3773,-0.7546 0.8316,-0.7546 0.3927,0 0.7314999,0.1848 1.001,0.5621 0.2232999,0.31569997 0.3388,0.5236 0.3388,0.6314 0,0.0847 -0.0462,0.1309 -0.1463,0.1309 C 2.695,1.2474 2.6642,1.2397 2.6411,1.232 2.5949,1.1781 2.5641,1.1242 2.5487,1.0857 2.3792999,0.7084 2.0251,0.20019999 1.5631,0.20019999 1.4090999,0.20019999 1.3321,0.3157 1.3321,0.539 c 0,0.0847 0.0154,0.1848 0.0462,0.308 l 0.5313,2.156 h 0.7469 c 0.1771,0 0.2694999,0.0385 0.2694999,0.2001999 z"
                       id="path8489" />
                  </g>
                </g>
              </g>
              <g
                 transform="translate(3.3264,5.1128)"
                 id="g4709">
                <g
                   class="typst-text"
                   transform="scale(1,-1)"
                   id="g5886">
                  <g
                     id="g8462">
                    <path
                       d="M 5.3515,2.1329 H 3.2031999 v 2.1483 c 0,0.1232 -0.0847,0.2079 -0.2078999,0.2079 -0.1232001,0 -0.2079,-0.0847 -0.2079,-0.2079 V 2.1329 H 0.6391 c -0.1232,0 -0.2079,-0.0847 -0.2079,-0.2079 0,-0.1232 0.0847,-0.2079 0.2079,-0.2079 h 2.1483 v -2.1483 c 0,-0.12319997 0.0847,-0.2079 0.2079,-0.2079 0.1232,0 0.2078999,0.0847 0.2078999,0.2079 V 1.7171 H 5.3515 c 0.1232,0 0.2079,0.0847 0.2079,0.2079 0,0.1001 -0.1078,0.2079 -0.2079,0.2079 z"
                       id="path5113" />
                  </g>
                </g>
              </g>
              <g
                 transform="translate(9.317,5.1128)"
                 id="g1046">
                <g
                   class="typst-text"
                   transform="scale(1,-1)"
                   id="g2388">
                  <g
                     id="g5810">
                    <path
                       d="M 2.3331,5.1128 C 2.002,4.7894 1.5092,4.6277 0.8393,4.6277 V 4.2889 c 0.4543,0 0.8161999,0.0693 1.0934,0.2002 V 0.6545 C 1.9327,0.55439997 1.925,0.4928 1.9018999,0.462 1.8634,0.3773 1.6324,0.3311 1.2089,0.3311 H 0.8932 V 0 c 0,0 1.3706,0.0308 1.3706,0.0308 C 2.2638,0.0308 3.6421,0 3.6421,0 V 0.3311 H 3.3264 C 2.9029,0.3311 2.6719,0.3773 2.6257,0.462 2.6103,0.4928 2.6026,0.5544 2.6026,0.6545 v 4.2119 c 0,0.2079 -0.0308,0.2464 -0.2695,0.2464 z"
                       id="path4919" />
                  </g>
                </g>
              </g>
            </g>
          </g>
        </g>
        <g
           transform="translate(277.456,88.7753)"
           id="g5269">
          <g
             class="typst-text"
             transform="scale(1,-1)"
             id="g336">
            <g
               id="g1442">
              <path
                 d="M 7.678,4.037 H 0.88 C 0.704,4.037 0.616,3.949 0.616,3.784 0.616,3.619 0.704,3.531 0.88,3.531 h 6.798 c 0.176,0 0.264,0.088 0.264,0.253 0,0.132 -0.121,0.253 -0.264,0.253 z m 0,-2.068 H 0.88 C 0.704,1.969 0.616,1.881 0.616,1.716 0.616,1.551 0.704,1.4629999 0.88,1.4629999 h 6.798 c 0.176,0 0.264,0.088 0.264,0.2530001 0,0.143 -0.121,0.253 -0.264,0.253 z"
                 id="path6793" />
            </g>
          </g>
        </g>
        <g
           transform="translate(289.069,70.8662)"
           id="g4299">
          <g
             class="typst-group"
             id="g6953">
            <g
               id="g9180">
              <g
                 transform="translate(0,17.9091)"
                 id="g4204">
                <g
                   class="typst-text"
                   transform="scale(1,-1)"
                   id="g247">
                  <g
                     id="g4735">
                    <path
                       d="m 13.915,-4.95 1.364,3.586 H 14.905 C 14.696,-1.914 14.344,-2.376 13.838,-2.75 12.595,-3.674 11,-3.916 8.701,-3.916 H 2.2 L 7.7,2.552 C 7.777,2.629 7.81,2.706 7.81,2.761 L 2.684,9.834 h 5.907 c 2.079,0 3.806,-0.264 4.939,-0.99 0.66,-0.418 1.121999,-0.935 1.386,-1.5510003 h 0.363 L 13.915,10.45 H 0.968 C 0.77,10.45 0.65999997,10.417 0.627,10.351 0.616,10.318 0.616,10.186 0.616,9.955 L 6.391,2.057 0.748,-4.565 C 0.671,-4.653 0.627,-4.73 0.627,-4.785 c 0,-0.11 0.11,-0.165 0.341,-0.165 z"
                       id="path6703" />
                  </g>
                </g>
              </g>
              <g
                 transform="translate(4.06505,5.2591)"
                 id="g5485">
                <g
                   class="typst-text"
                   transform="scale(1,-1)"
                   id="g9251">
                  <g
                     id="g9547">
                    <path
                       d="m 6.8838,5.2283 c -0.1694,0 -0.7546,0.0308 -0.924,0.0308 C 5.8289,5.2591 5.7673,5.1898 5.7673,5.0589 5.7904,4.9819 5.7981,4.9357 5.9136,4.928 6.0214,4.9203 6.0752997,4.8895 6.0752997,4.851 c 0,-0.0847 -0.1078,-0.2002002 -0.3233997,-0.3542 L 2.6334,2.31 3.2186,4.6277 C 3.2571,4.7817 3.3341,4.8741 3.4496,4.9126 3.4881,4.9203 3.619,4.928 3.8576999,4.928 4.0348,4.928 4.1195,4.9665 4.1195,5.1128 4.1195,5.2129 4.0656,5.2591 3.9654999,5.2591 3.773,5.2591 3.157,5.2283 2.9645,5.2283 2.6026,5.2283 2.1252,5.2591 1.9557999,5.2591 1.8326,5.2591 1.771,5.1898 1.771,5.0589 1.771,4.9742 1.8634,4.928 2.0482,4.928 c 0.2695,0 0.4312,0.0154 0.4312,-0.0924 L 1.4322,0.6314 C 1.3937,0.4774 1.3167,0.385 1.2012,0.3542 1.1626999,0.3388 1.0241,0.3311 0.7931,0.3311 0.616,0.3311 0.5313,0.308 0.5313,0.1309 0.55439997,0.0462 0.5621,0 0.6853,0 0.8701,0 1.4938,0.0308 1.6786,0.0308 2.0405,0.0308 2.5256,0 2.695,0 2.8181999,0 2.8798,0.0693 2.8798,0.20019999 2.8798,0.2695 2.8567,0.308 2.8028,0.3157 2.7181,0.3234 2.6565,0.3311 2.6103,0.3311 2.3792999,0.3388 2.1714,0.3234 2.1714,0.4312 L 2.5256,1.8788 3.7576,2.7412 4.851,0.6314 C 4.8818,0.5698 4.8972,0.5236 4.8972,0.5005 4.8972,0.385 4.7894,0.3311 4.5738,0.3311 4.4121,0.3311 4.3505,0.27719998 4.3505,0.1309 4.3736,0.0462 4.3813,0 4.5045,0 4.6893,0 5.2976,0.0308 5.4824,0.0308 5.6287,0.0308 6.083,0 6.2293,0 c 0.1232,0 0.1848,0.0616 0.1848,0.1925 0,0.0924 -0.0693,0.1386 -0.2002,0.1386 -0.2387,0 -0.4004,0.077 -0.4774,0.2387 C 5.2899,1.4399 4.8356,2.2946 4.3967,3.1724 l 0.1617,0.1309 0.77,0.539 C 5.8982,4.235 6.2139,4.4583 6.2755,4.4968 6.699,4.7585998 7.0532,4.9049 7.3381,4.928 7.469,4.9357 7.5383,5.005 7.5383,5.1205 c 0,0.0847 -0.0462,0.1309 -0.1309,0.1309 -0.0924,0 -0.4312,-0.0231 -0.5236,-0.0231 z"
                       id="path1964" />
                  </g>
                </g>
              </g>
              <g
                 transform="translate(0.4191,24.6961)"
                 id="g4632">
                <g
                   class="typst-group"
                   id="g5750">
                  <g
                     id="g8255">
                    <g
                       transform="translate(0,5.3438)"
                       id="g2583">
                      <g
                         class="typst-text"
                         transform="scale(1,-1)"
                         id="g9442">
                        <g
                           id="g6699">
                          <path
                             d="m 4.3659,2.8567 c 0,0.3388 -0.2772,0.5620999 -0.6160001,0.5620999 C 3.4034,3.4187999 2.9953,3.1955 2.5179,2.7412 2.1714,2.4101 1.8942,2.1945 1.7017,2.1021 l 0.7392,2.9722 c 0.0077,0.0154 0.0154,0.0616 0.0308,0.1309 0,0.0924 -0.0539,0.1386 -0.154,0.1386 L 1.3475,5.2668 C 1.2166,5.2591 1.155,5.1898 1.155,5.0589 1.155,4.9742 1.232,4.928 1.3783,4.928 c 0.1309,0 0.3388,0 0.3388,-0.0847 C 1.7171,4.8125 1.7094,4.7586 1.6863,4.6816 1.3167,3.2109 0.9625,1.7248 0.5852,0.2618 0.5775,0.231 0.5775,0.2079 0.5775,0.20019999 0.5775,0.0154 0.6699,-0.077 0.8624,-0.077 c 0.1925,0 0.3157,0.1155 0.3773,0.3388 C 1.3629,0.73149997 1.54,1.4322 1.6093,1.7171 2.2175999,1.6478 2.5256,1.4553 2.5256,1.1242 2.5256,1.0549 2.4794,0.8085 2.4794,0.7392 2.4794,0.2618 2.8413,-0.077 3.3109999,-0.077 3.5882,-0.077 3.8192,0.0616 3.9963,0.3388 4.158,0.5929 4.2581,0.847 4.3043,1.1165 c 0,0.0847 -0.0539,0.1309 -0.154,0.1309 -0.0462,0 -0.077,-0.0077 -0.1001,-0.0231 C 4.0117,1.155 3.9809,1.0934 3.9732,1.0395 3.8192,0.4774 3.6036,0.20019999 3.3341,0.20019999 c -0.154,0 -0.231,0.12320001 -0.231,0.36190001 0,0.0924 0.0154,0.2002 0.0385,0.3311 0.0231,0.0847 0.0385,0.1617 0.0385,0.2464 0,0.3311 -0.1694,0.5621 -0.5159,0.6776 -0.2156,0.077 -0.4312,0.1309 -0.6468,0.154 0.1463,0.1001 0.3311,0.2541 0.5544,0.4543 0.3619,0.3234 0.7007,0.7161 1.1704,0.7161 0.0847,0 0.1463,-0.0154 0.1925,-0.0462 C 3.696,3.0338 3.5728,2.8875 3.5728,2.6488 c 0,-0.1848 0.1463,-0.3157 0.3311,-0.3157 0.2772,0 0.462,0.2464 0.462,0.5236 z"
                             id="path8375" />
                        </g>
                      </g>
                    </g>
                    <g
                       transform="translate(4.6739,5.3438)"
                       id="g3952">
                      <g
                         class="typst-text"
                         transform="scale(1,-1)"
                         id="g8759">
                        <g
                           id="g9570">
                          <path
                             d="M 5.3746,2.8259 H 0.616 c -0.1232,0 -0.1848,-0.0616 -0.1848,-0.1771 0,-0.1155 0.0616,-0.1771 0.1848,-0.1771 h 4.7586 c 0.1232,0 0.1848,0.0616 0.1848,0.1771 0,0.0924 -0.0847,0.1771 -0.1848,0.1771 z m 0,-1.4476 H 0.616 c -0.1232,0 -0.1848,-0.0616 -0.1848,-0.1771 0,-0.1155 0.0616,-0.1771 0.1848,-0.1771 h 4.7586 c 0.1232,0 0.1848,0.0616 0.1848,0.1771 0,0.1001 -0.0847,0.1771 -0.1848,0.1771 z"
                             id="path7497" />
                        </g>
                      </g>
                    </g>
                    <g
                       transform="translate(10.6645,5.3438)"
                       id="g8761">
                      <g
                         class="typst-text"
                         transform="scale(1,-1)"
                         id="g915">
                        <g
                           id="g8865">
                          <path
                             d="M 2.3331,5.1128 C 2.002,4.7894 1.5092,4.6277 0.8393,4.6277 V 4.2889 c 0.4543,0 0.8161999,0.0693 1.0934,0.2002 V 0.6545 C 1.9327,0.55439997 1.925,0.4928 1.9018999,0.462 1.8634,0.3773 1.6324,0.3311 1.2089,0.3311 H 0.8932 V 0 c 0,0 1.3706,0.0308 1.3706,0.0308 C 2.2638,0.0308 3.6421,0 3.6421,0 V 0.3311 H 3.3264 C 2.9029,0.3311 2.6719,0.3773 2.6257,0.462 2.6103,0.4928 2.6026,0.5544 2.6026,0.6545 v 4.2119 c 0,0.2079 -0.0308,0.2464 -0.2695,0.2464 z"
                             id="path4042" />
                        </g>
                      </g>
                    </g>
                  </g>
                </g>
              </g>
            </g>
          </g>
        </g>
        <g
           transform="translate(306.787,76.2023)"
           id="g4438">
          <g
             class="typst-group"
             id="g3183">
            <g
               id="g7965">
              <g
                 transform="translate(1.1,4.862)"
                 id="g5208">
                <g
                   class="typst-text"
                   transform="scale(1,-1)"
                   id="g9130">
                  <g
                     id="g2249">
                    <path
                       d="M 5.907,1.507 C 5.654,0.638 5.291,0.198 4.84,0.198 c -0.143,0 -0.22,0.11 -0.22,0.319 0,0.154 0.066,0.407 0.198,0.748 0.44,1.199 0.66,1.991 0.66,2.3979999 C 5.478,4.433 4.961,4.862 4.191,4.862 3.542,4.862 2.981,4.576 2.53,3.993 2.442,4.4769998 2.057,4.862 1.496,4.862 0.88,4.862 0.638,4.29 0.484,3.795 0.374,3.443 0.319,3.234 0.319,3.157 0.319,3.058 0.374,3.003 0.495,3.003 0.55,3.003 0.583,3.014 0.616,3.036 0.671,3.135 0.704,3.212 0.715,3.289 0.913,4.125 1.166,4.5429997 1.4629999,4.5429997 1.661,4.5429997 1.76,4.389 1.76,4.081 1.76,3.938 1.705,3.641 1.584,3.19 L 0.957,0.693 C 0.924,0.55 0.858,0.264 0.858,0.20899999 0.858,-0.011 0.979,-0.121 1.221,-0.121 c 0.209,0 0.363,0.11 0.44,0.32999999 C 1.683,0.264 1.749,0.539 1.87,1.012 L 2.101,1.9909999 2.431,3.245 C 2.552,3.498 2.739,3.751 2.97,4.015 3.289,4.367 3.685,4.5429997 4.158,4.5429997 4.521,4.5429997 4.697,4.301 4.697,3.828 4.697,3.41 4.466,2.574 3.993,1.3199999 3.916,1.122 3.883,0.957 3.883,0.814 c 0,-0.539 0.407,-0.935 0.935,-0.935 0.484,0 0.869,0.275 1.144,0.825 0.209,0.44 0.319,0.737 0.319,0.88 0,0.099 -0.055,0.154 -0.176,0.154 -0.033,0 -0.198,-0.099 -0.198,-0.231 z"
                       id="path2275" />
                  </g>
                </g>
              </g>
              <g
                 transform="translate(7.7,7.579)"
                 id="g6140">
                <g
                   class="typst-text"
                   transform="scale(1,-1)"
                   id="g1127">
                  <g
                     id="g5481">
                    <path
                       d="m 4.3659,2.8567 c 0,0.3388 -0.2772,0.5620999 -0.6160001,0.5620999 C 3.4034,3.4187999 2.9953,3.1955 2.5179,2.7412 2.1714,2.4101 1.8942,2.1945 1.7017,2.1021 l 0.7392,2.9722 c 0.0077,0.0154 0.0154,0.0616 0.0308,0.1309 0,0.0924 -0.0539,0.1386 -0.154,0.1386 L 1.3475,5.2668 C 1.2166,5.2591 1.155,5.1898 1.155,5.0589 1.155,4.9742 1.232,4.928 1.3783,4.928 c 0.1309,0 0.3388,0 0.3388,-0.0847 C 1.7171,4.8125 1.7094,4.7586 1.6863,4.6816 1.3167,3.2109 0.9625,1.7248 0.5852,0.2618 0.5775,0.231 0.5775,0.2079 0.5775,0.20019999 0.5775,0.0154 0.6699,-0.077 0.8624,-0.077 c 0.1925,0 0.3157,0.1155 0.3773,0.3388 C 1.3629,0.73149997 1.54,1.4322 1.6093,1.7171 2.2175999,1.6478 2.5256,1.4553 2.5256,1.1242 2.5256,1.0549 2.4794,0.8085 2.4794,0.7392 2.4794,0.2618 2.8413,-0.077 3.3109999,-0.077 3.5882,-0.077 3.8192,0.0616 3.9963,0.3388 4.158,0.5929 4.2581,0.847 4.3043,1.1165 c 0,0.0847 -0.0539,0.1309 -0.154,0.1309 -0.0462,0 -0.077,-0.0077 -0.1001,-0.0231 C 4.0117,1.155 3.9809,1.0934 3.9732,1.0395 3.8192,0.4774 3.6036,0.20019999 3.3341,0.20019999 c -0.154,0 -0.231,0.12320001 -0.231,0.36190001 0,0.0924 0.0154,0.2002 0.0385,0.3311 0.0231,0.0847 0.0385,0.1617 0.0385,0.2464 0,0.3311 -0.1694,0.5621 -0.5159,0.6776 -0.2156,0.077 -0.4312,0.1309 -0.6468,0.154 0.1463,0.1001 0.3311,0.2541 0.5544,0.4543 0.3619,0.3234 0.7007,0.7161 1.1704,0.7161 0.0847,0 0.1463,-0.0154 0.1925,-0.0462 C 3.696,3.0338 3.5728,2.8875 3.5728,2.6488 c 0,-0.1848 0.1463,-0.3157 0.3311,-0.3157 0.2772,0 0.462,0.2464 0.462,0.5236 z"
                       id="path3992" />
                  </g>
                </g>
              </g>
              <g
                 transform="translate(2.04545,20.383)"
                 id="g9545">
                <g
                   class="typst-text"
                   transform="scale(1,-1)"
                   id="g2336">
                  <g
                     id="g4172">
                    <path
                       d="M 9.504,7.513 C 9.295,7.513 8.613,7.48 8.404,7.48 8.195,7.48 7.502,7.513 7.2929997,7.513 7.128,7.513 7.051,7.425 7.051,7.249 7.051,7.15 7.128,7.095 7.2929997,7.084 7.755,7.084 7.986,6.941 7.986,6.6549997 7.986,6.5889997 7.975,6.512 7.9639997,6.435 L 6.776,1.727 4.411,7.282 C 4.323,7.491 4.301,7.513 4.026,7.513 H 2.563 C 2.299,7.513 2.2,7.491 2.2,7.249 2.2,7.139 2.321,7.084 2.552,7.084 3.014,7.084 3.245,7.073 3.256,7.04 L 1.793,1.21 C 1.694,0.781 1.441,0.539 1.045,0.462 0.759,0.429 0.429,0.473 0.429,0.16499999 0.429,0.055 0.495,0 0.616,0 0.814,0 1.496,0.033 1.705,0.033 1.914,0.033 2.618,0 2.827,0 2.992,0 3.069,0.088 3.069,0.264 3.069,0.363 2.981,0.41799998 2.805,0.429 2.354,0.44 2.134,0.583 2.134,0.858 2.134,0.913 2.145,0.99 2.167,1.1 l 1.419,5.621 2.75,-6.49 C 6.402,0.077 6.49,0 6.5889997,0 6.6879997,0 6.754,0.088 6.798,0.264 l 1.529,6.05 C 8.47,6.875 8.778,7.073 9.46,7.084 9.614,7.095 9.691,7.183 9.691,7.3589997 9.658,7.458 9.647,7.513 9.504,7.513 Z"
                       id="path3925" />
                  </g>
                </g>
              </g>
              <g
                 transform="translate(1.1,9.823)"
                 id="g96">
                <path
                   class="typst-shape"
                   fill="none"
                   stroke="#000000"
                   stroke-width="0.528"
                   stroke-linecap="butt"
                   stroke-linejoin="miter"
                   stroke-miterlimit="4"
                   d="M 0,0 H 11.8899"
                   id="path8550" />
              </g>
            </g>
          </g>
        </g>
        <g
           transform="translate(320.876,79.3186)"
           id="g944">
          <g
             class="typst-group"
             id="g5287">
            <g
               id="g1227">
              <g
                 transform="translate(0,9.4567)"
                 id="g2672">
                <g
                   class="typst-text"
                   transform="scale(1,-1)"
                   id="g9953">
                  <g
                     id="g300">
                    <path
                       d="M 6.49,4.301 C 6.49,4.202 6.545,4.092 6.666,3.9819999 6.919,3.74 7.051,3.443 7.051,3.091 7.051,2.904 6.985,2.6069999 6.853,2.178 6.446,0.858 5.929,0.198 5.302,0.198 c -0.517,0 -0.77,0.297 -0.77,0.902 0,0.209 0.044,0.462 0.121,0.781 0.198,0.792 0.407,1.573 0.5939997,2.376 0.022,0.077 0.033,0.121 0.033,0.154 0,0.22 -0.1209997,0.33 -0.3629997,0.33 -0.22,0 -0.363,-0.11 -0.4400002,-0.33 L 4.037,2.695 C 3.872,2.057 3.751,1.837 3.751,1.265 c 0,-0.088 0,-0.154 0.011,-0.187 C 3.509,0.495 3.19,0.198 2.805,0.198 2.2549999,0.198 1.98,0.517 1.98,1.144 c 0,0.407 0.187,1.1 0.561,2.079 0.121,0.33 0.187,0.561 0.187,0.704 0,0.539 -0.396,0.935 -0.935,0.935 -0.495,0 -0.869,-0.275 -1.144,-0.825 -0.22,-0.429 -0.33,-0.7260001 -0.33,-0.88 0,-0.099 0.055,-0.154 0.176,-0.154 0.143,0 0.16499997,0.066 0.209,0.22 C 0.968,4.103 1.3199999,4.5429997 1.76,4.5429997 1.914,4.5429997 1.9909999,4.433 1.9909999,4.224 1.9909999,4.059 1.925,3.817 1.804,3.487 1.397,2.42 1.188,1.694 1.188,1.287 c 0,-0.935 0.6269999,-1.408 1.584,-1.408 0.462,0 0.836,0.231 1.133,0.704 0.22,-0.473 0.671,-0.704 1.364,-0.704 0.6819997,0 1.221,0.45099998 1.606,1.353 0.253,0.572 0.726,2.09 0.726,2.827 0,0.165 -0.011,0.275 -0.022,0.33 C 7.535,4.598 7.3259997,4.862 7.084,4.862 6.798,4.862 6.49,4.587 6.49,4.301 Z"
                       id="path6568" />
                  </g>
                </g>
              </g>
              <g
                 transform="translate(7.909,5.3438)"
                 id="g4411">
                <g
                   class="typst-text"
                   transform="scale(1,-1)"
                   id="g163">
                  <g
                     id="g4135">
                    <path
                       d="m 4.3659,2.8567 c 0,0.3388 -0.2772,0.5620999 -0.6160001,0.5620999 C 3.4034,3.4187999 2.9953,3.1955 2.5179,2.7412 2.1714,2.4101 1.8942,2.1945 1.7017,2.1021 l 0.7392,2.9722 c 0.0077,0.0154 0.0154,0.0616 0.0308,0.1309 0,0.0924 -0.0539,0.1386 -0.154,0.1386 L 1.3475,5.2668 C 1.2166,5.2591 1.155,5.1898 1.155,5.0589 1.155,4.9742 1.232,4.928 1.3783,4.928 c 0.1309,0 0.3388,0 0.3388,-0.0847 C 1.7171,4.8125 1.7094,4.7586 1.6863,4.6816 1.3167,3.2109 0.9625,1.7248 0.5852,0.2618 0.5775,0.231 0.5775,0.2079 0.5775,0.20019999 0.5775,0.0154 0.6699,-0.077 0.8624,-0.077 c 0.1925,0 0.3157,0.1155 0.3773,0.3388 C 1.3629,0.73149997 1.54,1.4322 1.6093,1.7171 2.2175999,1.6478 2.5256,1.4553 2.5256,1.1242 2.5256,1.0549 2.4794,0.8085 2.4794,0.7392 2.4794,0.2618 2.8413,-0.077 3.3109999,-0.077 3.5882,-0.077 3.8192,0.0616 3.9963,0.3388 4.158,0.5929 4.2581,0.847 4.3043,1.1165 c 0,0.0847 -0.0539,0.1309 -0.154,0.1309 -0.0462,0 -0.077,-0.0077 -0.1001,-0.0231 C 4.0117,1.155 3.9809,1.0934 3.9732,1.0395 3.8192,0.4774 3.6036,0.20019999 3.3341,0.20019999 c -0.154,0 -0.231,0.12320001 -0.231,0.36190001 0,0.0924 0.0154,0.2002 0.0385,0.3311 0.0231,0.0847 0.0385,0.1617 0.0385,0.2464 0,0.3311 -0.1694,0.5621 -0.5159,0.6776 -0.2156,0.077 -0.4312,0.1309 -0.6468,0.154 0.1463,0.1001 0.3311,0.2541 0.5544,0.4543 0.3619,0.3234 0.7007,0.7161 1.1704,0.7161 0.0847,0 0.1463,-0.0154 0.1925,-0.0462 C 3.696,3.0338 3.5728,2.8875 3.5728,2.6488 c 0,-0.1848 0.1463,-0.3157 0.3311,-0.3157 0.2772,0 0.462,0.2464 0.462,0.5236 z"
                       id="path4274" />
                  </g>
                </g>
              </g>
              <g
                 transform="translate(7.876,7.1808)"
                 id="g8020">
                <g
                   class="typst-group"
                   id="g4212">
                  <g
                     id="g8481">
                    <g
                       transform="translate(0,5.1128)"
                       id="g2194">
                      <g
                         class="typst-text"
                         transform="scale(1,-1)"
                         id="g312">
                        <g
                           id="g1872">
                          <path
                             d="M 2.9259999,3.2031999 C 2.9259999,3.2879 2.8413,3.3341 2.6719,3.3341 H 1.9943 l 0.2695,1.0934 c 0,0.0154 0.0231,0.0924 0.0231,0.1078 0,0.1848 -0.0924,0.2772 -0.2849,0.2772 C 1.771,4.8125 1.6401,4.62 1.5862,4.3582 L 1.3398,3.3341 H 0.5929 C 0.4158,3.3341 0.3234,3.311 0.3234,3.1416 0.3234,3.0492 0.4081,3.003 0.5775,3.003 H 1.2551 L 0.8239,1.2474 C 0.7469,0.9394 0.7084,0.7469 0.7084,0.6776 c 0,-0.4543 0.3773,-0.7546 0.8316,-0.7546 0.3927,0 0.7314999,0.1848 1.001,0.5621 0.2232999,0.31569997 0.3388,0.5236 0.3388,0.6314 0,0.0847 -0.0462,0.1309 -0.1463,0.1309 C 2.695,1.2474 2.6642,1.2397 2.6411,1.232 2.5949,1.1781 2.5641,1.1242 2.5487,1.0857 2.3792999,0.7084 2.0251,0.20019999 1.5631,0.20019999 1.4090999,0.20019999 1.3321,0.3157 1.3321,0.539 c 0,0.0847 0.0154,0.1848 0.0462,0.308 l 0.5313,2.156 h 0.7469 c 0.1771,0 0.2694999,0.0385 0.2694999,0.2001999 z"
                             id="path1949" />
                        </g>
                      </g>
                    </g>
                    <g
                       transform="translate(3.3264,5.1128)"
                       id="g2900">
                      <g
                         class="typst-text"
                         transform="scale(1,-1)"
                         id="g8420">
                        <g
                           id="g9796">
                          <path
                             d="M 5.3515,2.1329 H 3.2031999 v 2.1483 c 0,0.1232 -0.0847,0.2079 -0.2078999,0.2079 -0.1232001,0 -0.2079,-0.0847 -0.2079,-0.2079 V 2.1329 H 0.6391 c -0.1232,0 -0.2079,-0.0847 -0.2079,-0.2079 0,-0.1232 0.0847,-0.2079 0.2079,-0.2079 h 2.1483 v -2.1483 c 0,-0.12319997 0.0847,-0.2079 0.2079,-0.2079 0.1232,0 0.2078999,0.0847 0.2078999,0.2079 V 1.7171 H 5.3515 c 0.1232,0 0.2079,0.0847 0.2079,0.2079 0,0.1001 -0.1078,0.2079 -0.2079,0.2079 z"
                             id="path8132" />
                        </g>
                      </g>
                    </g>
                    <g
                       transform="translate(9.317,5.1128)"
                       id="g8385">
                      <g
                         class="typst-text"
                         transform="scale(1,-1)"
                         id="g6488">
                        <g
                           id="g5674">
                          <path
                             d="M 2.3331,5.1128 C 2.002,4.7894 1.5092,4.6277 0.8393,4.6277 V 4.2889 c 0.4543,0 0.8161999,0.0693 1.0934,0.2002 V 0.6545 C 1.9327,0.55439997 1.925,0.4928 1.9018999,0.462 1.8634,0.3773 1.6324,0.3311 1.2089,0.3311 H 0.8932 V 0 c 0,0 1.3706,0.0308 1.3706,0.0308 C 2.2638,0.0308 3.6421,0 3.6421,0 V 0.3311 H 3.3264 C 2.9029,0.3311 2.6719,0.3773 2.6257,0.462 2.6103,0.4928 2.6026,0.5544 2.6026,0.6545 v 4.2119 c 0,0.2079 -0.0308,0.2464 -0.2695,0.2464 z"
                             id="path302" />
                        </g>
                      </g>
                    </g>
                  </g>
                </g>
              </g>
            </g>
          </g>
        </g>
      </g>
      <defs
         id="id-a35bf553-85c1-4bc0-ab0b-9bea522d616d">
        <symbol
           id="id-a3198d3a-17d6-430c-8482-6a9b7bf02ec2"
           overflow="visible">
          <path
             d="M 6.49,4.301 C 6.49,4.202 6.545,4.092 6.666,3.9819999 6.919,3.74 7.051,3.443 7.051,3.091 7.051,2.904 6.985,2.6069999 6.853,2.178 6.446,0.858 5.929,0.198 5.302,0.198 c -0.517,0 -0.77,0.297 -0.77,0.902 0,0.209 0.044,0.462 0.121,0.781 0.198,0.792 0.407,1.573 0.5939997,2.376 0.022,0.077 0.033,0.121 0.033,0.154 0,0.22 -0.1209997,0.33 -0.3629997,0.33 -0.22,0 -0.363,-0.11 -0.4400002,-0.33 L 4.037,2.695 C 3.872,2.057 3.751,1.837 3.751,1.265 c 0,-0.088 0,-0.154 0.011,-0.187 C 3.509,0.495 3.19,0.198 2.805,0.198 2.2549999,0.198 1.98,0.517 1.98,1.144 c 0,0.407 0.187,1.1 0.561,2.079 0.121,0.33 0.187,0.561 0.187,0.704 0,0.539 -0.396,0.935 -0.935,0.935 -0.495,0 -0.869,-0.275 -1.144,-0.825 -0.22,-0.429 -0.33,-0.7260001 -0.33,-0.88 0,-0.099 0.055,-0.154 0.176,-0.154 0.143,0 0.16499997,0.066 0.209,0.22 C 0.968,4.103 1.3199999,4.5429997 1.76,4.5429997 1.914,4.5429997 1.9909999,4.433 1.9909999,4.224 1.9909999,4.059 1.925,3.817 1.804,3.487 1.397,2.42 1.188,1.694 1.188,1.287 c 0,-0.935 0.6269999,-1.408 1.584,-1.408 0.462,0 0.836,0.231 1.133,0.704 0.22,-0.473 0.671,-0.704 1.364,-0.704 0.6819997,0 1.221,0.45099998 1.606,1.353 0.253,0.572 0.726,2.09 0.726,2.827 0,0.165 -0.011,0.275 -0.022,0.33 C 7.535,4.598 7.3259997,4.862 7.084,4.862 6.798,4.862 6.49,4.587 6.49,4.301 Z"
             id="path1" />
        </symbol>
        <symbol
           id="id-e1f73fcc-57ad-44e5-9556-1ecf7b0ddb60"
           overflow="visible">
          <path
             d="M 2.9259999,3.2031999 C 2.9259999,3.2879 2.8413,3.3341 2.6719,3.3341 H 1.9943 l 0.2695,1.0934 c 0,0.0154 0.0231,0.0924 0.0231,0.1078 0,0.1848 -0.0924,0.2772 -0.2849,0.2772 C 1.771,4.8125 1.6401,4.62 1.5862,4.3582 L 1.3398,3.3341 H 0.5929 C 0.4158,3.3341 0.3234,3.311 0.3234,3.1416 0.3234,3.0492 0.4081,3.003 0.5775,3.003 H 1.2551 L 0.8239,1.2474 C 0.7469,0.9394 0.7084,0.7469 0.7084,0.6776 c 0,-0.4543 0.3773,-0.7546 0.8316,-0.7546 0.3927,0 0.7314999,0.1848 1.001,0.5621 0.2232999,0.31569997 0.3388,0.5236 0.3388,0.6314 0,0.0847 -0.0462,0.1309 -0.1463,0.1309 C 2.695,1.2474 2.6642,1.2397 2.6411,1.232 2.5949,1.1781 2.5641,1.1242 2.5487,1.0857 2.3792999,0.7084 2.0251,0.20019999 1.5631,0.20019999 1.4090999,0.20019999 1.3321,0.3157 1.3321,0.539 c 0,0.0847 0.0154,0.1848 0.0462,0.308 l 0.5313,2.156 h 0.7469 c 0.1771,0 0.2694999,0.0385 0.2694999,0.2001999 z"
             id="path2" />
        </symbol>
        <symbol
           id="id-69f0aaba-e10c-45f1-90c1-5974cd4b8216"
           overflow="visible">
          <path
             d="M 5.3515,2.1329 H 3.2031999 v 2.1483 c 0,0.1232 -0.0847,0.2079 -0.2078999,0.2079 -0.1232001,0 -0.2079,-0.0847 -0.2079,-0.2079 V 2.1329 H 0.6391 c -0.1232,0 -0.2079,-0.0847 -0.2079,-0.2079 0,-0.1232 0.0847,-0.2079 0.2079,-0.2079 h 2.1483 v -2.1483 c 0,-0.12319997 0.0847,-0.2079 0.2079,-0.2079 0.1232,0 0.2078999,0.0847 0.2078999,0.2079 V 1.7171 H 5.3515 c 0.1232,0 0.2079,0.0847 0.2079,0.2079 0,0.1001 -0.1078,0.2079 -0.2079,0.2079 z"
             id="path3" />
        </symbol>
        <symbol
           id="id-28e0b432-927d-4782-93a2-1ad656693715"
           overflow="visible">
          <path
             d="M 2.3331,5.1128 C 2.002,4.7894 1.5092,4.6277 0.8393,4.6277 V 4.2889 c 0.4543,0 0.8161999,0.0693 1.0934,0.2002 V 0.6545 C 1.9327,0.55439997 1.925,0.4928 1.9018999,0.462 1.8634,0.3773 1.6324,0.3311 1.2089,0.3311 H 0.8932 V 0 c 0,0 1.3706,0.0308 1.3706,0.0308 C 2.2638,0.0308 3.6421,0 3.6421,0 V 0.3311 H 3.3264 C 2.9029,0.3311 2.6719,0.3773 2.6257,0.462 2.6103,0.4928 2.6026,0.5544 2.6026,0.6545 v 4.2119 c 0,0.2079 -0.0308,0.2464 -0.2695,0.2464 z"
             id="path4" />
        </symbol>
        <symbol
           id="id-17fbbde6-86a9-4403-ab29-8ca13a5f7e2c"
           overflow="visible">
          <path
             d="M 7.678,4.037 H 0.88 C 0.704,4.037 0.616,3.949 0.616,3.784 0.616,3.619 0.704,3.531 0.88,3.531 h 6.798 c 0.176,0 0.264,0.088 0.264,0.253 0,0.132 -0.121,0.253 -0.264,0.253 z m 0,-2.068 H 0.88 C 0.704,1.969 0.616,1.881 0.616,1.716 0.616,1.551 0.704,1.4629999 0.88,1.4629999 h 6.798 c 0.176,0 0.264,0.088 0.264,0.2530001 0,0.143 -0.121,0.253 -0.264,0.253 z"
             id="path5" />
        </symbol>
        <symbol
           id="id-5088bb21-6e59-45fc-9eba-6c643a83969d"
           overflow="visible">
          <path
             d="m 13.915,-4.95 1.364,3.586 H 14.905 C 14.696,-1.914 14.344,-2.376 13.838,-2.75 12.595,-3.674 11,-3.916 8.701,-3.916 H 2.2 L 7.7,2.552 C 7.777,2.629 7.81,2.706 7.81,2.761 L 2.684,9.834 h 5.907 c 2.079,0 3.806,-0.264 4.939,-0.99 0.66,-0.418 1.121999,-0.935 1.386,-1.5510003 h 0.363 L 13.915,10.45 H 0.968 C 0.77,10.45 0.65999997,10.417 0.627,10.351 0.616,10.318 0.616,10.186 0.616,9.955 L 6.391,2.057 0.748,-4.565 C 0.671,-4.653 0.627,-4.73 0.627,-4.785 c 0,-0.11 0.11,-0.165 0.341,-0.165 z"
             id="path6" />
        </symbol>
        <symbol
           id="id-068db8dc-2ebc-4e9d-bbf8-8b9f3102679f"
           overflow="visible">
          <path
             d="m 6.8838,5.2283 c -0.1694,0 -0.7546,0.0308 -0.924,0.0308 C 5.8289,5.2591 5.7673,5.1898 5.7673,5.0589 5.7904,4.9819 5.7981,4.9357 5.9136,4.928 6.0214,4.9203 6.0752997,4.8895 6.0752997,4.851 c 0,-0.0847 -0.1078,-0.2002002 -0.3233997,-0.3542 L 2.6334,2.31 3.2186,4.6277 C 3.2571,4.7817 3.3341,4.8741 3.4496,4.9126 3.4881,4.9203 3.619,4.928 3.8576999,4.928 4.0348,4.928 4.1195,4.9665 4.1195,5.1128 4.1195,5.2129 4.0656,5.2591 3.9654999,5.2591 3.773,5.2591 3.157,5.2283 2.9645,5.2283 2.6026,5.2283 2.1252,5.2591 1.9557999,5.2591 1.8326,5.2591 1.771,5.1898 1.771,5.0589 1.771,4.9742 1.8634,4.928 2.0482,4.928 c 0.2695,0 0.4312,0.0154 0.4312,-0.0924 L 1.4322,0.6314 C 1.3937,0.4774 1.3167,0.385 1.2012,0.3542 1.1626999,0.3388 1.0241,0.3311 0.7931,0.3311 0.616,0.3311 0.5313,0.308 0.5313,0.1309 0.55439997,0.0462 0.5621,0 0.6853,0 0.8701,0 1.4938,0.0308 1.6786,0.0308 2.0405,0.0308 2.5256,0 2.695,0 2.8181999,0 2.8798,0.0693 2.8798,0.20019999 2.8798,0.2695 2.8567,0.308 2.8028,0.3157 2.7181,0.3234 2.6565,0.3311 2.6103,0.3311 2.3792999,0.3388 2.1714,0.3234 2.1714,0.4312 L 2.5256,1.8788 3.7576,2.7412 4.851,0.6314 C 4.8818,0.5698 4.8972,0.5236 4.8972,0.5005 4.8972,0.385 4.7894,0.3311 4.5738,0.3311 4.4121,0.3311 4.3505,0.27719998 4.3505,0.1309 4.3736,0.0462 4.3813,0 4.5045,0 4.6893,0 5.2976,0.0308 5.4824,0.0308 5.6287,0.0308 6.083,0 6.2293,0 c 0.1232,0 0.1848,0.0616 0.1848,0.1925 0,0.0924 -0.0693,0.1386 -0.2002,0.1386 -0.2387,0 -0.4004,0.077 -0.4774,0.2387 C 5.2899,1.4399 4.8356,2.2946 4.3967,3.1724 l 0.1617,0.1309 0.77,0.539 C 5.8982,4.235 6.2139,4.4583 6.2755,4.4968 6.699,4.7585998 7.0532,4.9049 7.3381,4.928 7.469,4.9357 7.5383,5.005 7.5383,5.1205 c 0,0.0847 -0.0462,0.1309 -0.1309,0.1309 -0.0924,0 -0.4312,-0.0231 -0.5236,-0.0231 z"
             id="path7" />
        </symbol>
        <symbol
           id="id-3bb9b084-796e-42fd-be54-b266e229fa38"
           overflow="visible">
          <path
             d="m 4.3659,2.8567 c 0,0.3388 -0.2772,0.5620999 -0.6160001,0.5620999 C 3.4034,3.4187999 2.9953,3.1955 2.5179,2.7412 2.1714,2.4101 1.8942,2.1945 1.7017,2.1021 l 0.7392,2.9722 c 0.0077,0.0154 0.0154,0.0616 0.0308,0.1309 0,0.0924 -0.0539,0.1386 -0.154,0.1386 L 1.3475,5.2668 C 1.2166,5.2591 1.155,5.1898 1.155,5.0589 1.155,4.9742 1.232,4.928 1.3783,4.928 c 0.1309,0 0.3388,0 0.3388,-0.0847 C 1.7171,4.8125 1.7094,4.7586 1.6863,4.6816 1.3167,3.2109 0.9625,1.7248 0.5852,0.2618 0.5775,0.231 0.5775,0.2079 0.5775,0.20019999 0.5775,0.0154 0.6699,-0.077 0.8624,-0.077 c 0.1925,0 0.3157,0.1155 0.3773,0.3388 C 1.3629,0.73149997 1.54,1.4322 1.6093,1.7171 2.2175999,1.6478 2.5256,1.4553 2.5256,1.1242 2.5256,1.0549 2.4794,0.8085 2.4794,0.7392 2.4794,0.2618 2.8413,-0.077 3.3109999,-0.077 3.5882,-0.077 3.8192,0.0616 3.9963,0.3388 4.158,0.5929 4.2581,0.847 4.3043,1.1165 c 0,0.0847 -0.0539,0.1309 -0.154,0.1309 -0.0462,0 -0.077,-0.0077 -0.1001,-0.0231 C 4.0117,1.155 3.9809,1.0934 3.9732,1.0395 3.8192,0.4774 3.6036,0.20019999 3.3341,0.20019999 c -0.154,0 -0.231,0.12320001 -0.231,0.36190001 0,0.0924 0.0154,0.2002 0.0385,0.3311 0.0231,0.0847 0.0385,0.1617 0.0385,0.2464 0,0.3311 -0.1694,0.5621 -0.5159,0.6776 -0.2156,0.077 -0.4312,0.1309 -0.6468,0.154 0.1463,0.1001 0.3311,0.2541 0.5544,0.4543 0.3619,0.3234 0.7007,0.7161 1.1704,0.7161 0.0847,0 0.1463,-0.0154 0.1925,-0.0462 C 3.696,3.0338 3.5728,2.8875 3.5728,2.6488 c 0,-0.1848 0.1463,-0.3157 0.3311,-0.3157 0.2772,0 0.462,0.2464 0.462,0.5236 z"
             id="path8" />
        </symbol>
        <symbol
           id="id-30e226ab-160b-45aa-a137-edc0c1dac144"
           overflow="visible">
          <path
             d="M 5.3746,2.8259 H 0.616 c -0.1232,0 -0.1848,-0.0616 -0.1848,-0.1771 0,-0.1155 0.0616,-0.1771 0.1848,-0.1771 h 4.7586 c 0.1232,0 0.1848,0.0616 0.1848,0.1771 0,0.0924 -0.0847,0.1771 -0.1848,0.1771 z m 0,-1.4476 H 0.616 c -0.1232,0 -0.1848,-0.0616 -0.1848,-0.1771 0,-0.1155 0.0616,-0.1771 0.1848,-0.1771 h 4.7586 c 0.1232,0 0.1848,0.0616 0.1848,0.1771 0,0.1001 -0.0847,0.1771 -0.1848,0.1771 z"
             id="path9" />
        </symbol>
        <symbol
           id="id-a5b84064-f043-43c6-95f4-d26c15175b01"
           overflow="visible">
          <path
             d="M 5.907,1.507 C 5.654,0.638 5.291,0.198 4.84,0.198 c -0.143,0 -0.22,0.11 -0.22,0.319 0,0.154 0.066,0.407 0.198,0.748 0.44,1.199 0.66,1.991 0.66,2.3979999 C 5.478,4.433 4.961,4.862 4.191,4.862 3.542,4.862 2.981,4.576 2.53,3.993 2.442,4.4769998 2.057,4.862 1.496,4.862 0.88,4.862 0.638,4.29 0.484,3.795 0.374,3.443 0.319,3.234 0.319,3.157 0.319,3.058 0.374,3.003 0.495,3.003 0.55,3.003 0.583,3.014 0.616,3.036 0.671,3.135 0.704,3.212 0.715,3.289 0.913,4.125 1.166,4.5429997 1.4629999,4.5429997 1.661,4.5429997 1.76,4.389 1.76,4.081 1.76,3.938 1.705,3.641 1.584,3.19 L 0.957,0.693 C 0.924,0.55 0.858,0.264 0.858,0.20899999 0.858,-0.011 0.979,-0.121 1.221,-0.121 c 0.209,0 0.363,0.11 0.44,0.32999999 C 1.683,0.264 1.749,0.539 1.87,1.012 L 2.101,1.9909999 2.431,3.245 C 2.552,3.498 2.739,3.751 2.97,4.015 3.289,4.367 3.685,4.5429997 4.158,4.5429997 4.521,4.5429997 4.697,4.301 4.697,3.828 4.697,3.41 4.466,2.574 3.993,1.3199999 3.916,1.122 3.883,0.957 3.883,0.814 c 0,-0.539 0.407,-0.935 0.935,-0.935 0.484,0 0.869,0.275 1.144,0.825 0.209,0.44 0.319,0.737 0.319,0.88 0,0.099 -0.055,0.154 -0.176,0.154 -0.033,0 -0.198,-0.099 -0.198,-0.231 z"
             id="path10" />
        </symbol>
        <symbol
           id="id-d3016db8-5d88-493f-a20f-49a32587645d"
           overflow="visible">
          <path
             d="M 9.504,7.513 C 9.295,7.513 8.613,7.48 8.404,7.48 8.195,7.48 7.502,7.513 7.2929997,7.513 7.128,7.513 7.051,7.425 7.051,7.249 7.051,7.15 7.128,7.095 7.2929997,7.084 7.755,7.084 7.986,6.941 7.986,6.6549997 7.986,6.5889997 7.975,6.512 7.9639997,6.435 L 6.776,1.727 4.411,7.282 C 4.323,7.491 4.301,7.513 4.026,7.513 H 2.563 C 2.299,7.513 2.2,7.491 2.2,7.249 2.2,7.139 2.321,7.084 2.552,7.084 3.014,7.084 3.245,7.073 3.256,7.04 L 1.793,1.21 C 1.694,0.781 1.441,0.539 1.045,0.462 0.759,0.429 0.429,0.473 0.429,0.16499999 0.429,0.055 0.495,0 0.616,0 0.814,0 1.496,0.033 1.705,0.033 1.914,0.033 2.618,0 2.827,0 2.992,0 3.069,0.088 3.069,0.264 3.069,0.363 2.981,0.41799998 2.805,0.429 2.354,0.44 2.134,0.583 2.134,0.858 2.134,0.913 2.145,0.99 2.167,1.1 l 1.419,5.621 2.75,-6.49 C 6.402,0.077 6.49,0 6.5889997,0 6.6879997,0 6.754,0.088 6.798,0.264 l 1.529,6.05 C 8.47,6.875 8.778,7.073 9.46,7.084 9.614,7.095 9.691,7.183 9.691,7.3589997 9.658,7.458 9.647,7.513 9.504,7.513 Z"
             id="path11" />
        </symbol>
      </defs>
    </g>
  </g>
</svg>
